<svg xmlns="http://www.w3.org/2000/svg" xmlns:xlink="http://www.w3.org/1999/xlink" width="500" zoomAndPan="magnify" viewBox="0 0 375 374.999991" height="500" preserveAspectRatio="xMidYMid meet" version="1.0"><defs><g/><clipPath id="0f1a168884"><path d="M 187.5 0 C 83.945312 0 0 83.945312 0 187.5 C 0 291.054688 83.945312 375 187.5 375 C 291.054688 375 375 291.054688 375 187.5 C 375 83.945312 291.054688 0 187.5 0 Z M 187.5 0 " clip-rule="nonzero"/></clipPath><clipPath id="4e68ed348b"><path d="M 97.914062 97.914062 L 277.085938 97.914062 L 277.085938 277.085938 L 97.914062 277.085938 Z M 97.914062 97.914062 " clip-rule="nonzero"/></clipPath><clipPath id="f980dcc031"><path d="M 187.5 97.914062 C 138.023438 97.914062 97.914062 138.023438 97.914062 187.5 C 97.914062 236.976562 138.023438 277.085938 187.5 277.085938 C 236.976562 277.085938 277.085938 236.976562 277.085938 187.5 C 277.085938 138.023438 236.976562 97.914062 187.5 97.914062 Z M 187.5 97.914062 " clip-rule="nonzero"/></clipPath><clipPath id="72a3821923"><path d="M 133.398438 133.398438 L 239.5625 133.398438 L 239.5625 239.5625 L 133.398438 239.5625 Z M 133.398438 133.398438 " clip-rule="nonzero"/></clipPath></defs><g clip-path="url(#0f1a168884)"><rect x="-37.5" width="450" fill="#6fff31" y="-37.499999" height="449.999989" fill-opacity="1"/></g><g fill="#000000" fill-opacity="1"><g transform="translate(192.487453, 311.084168)"><g><path d="M -5.234375 -0.6875 C -4.460938 -0.632812 -3.882812 -0.375 -3.5 0.09375 C -3.125 0.5625 -2.960938 1.179688 -3.015625 1.953125 L -4.640625 23.5 C -4.703125 24.320312 -4.96875 24.929688 -5.4375 25.328125 C -5.90625 25.722656 -6.546875 25.890625 -7.359375 25.828125 L -25.125 24.5 C -25.945312 24.4375 -26.554688 24.175781 -26.953125 23.71875 C -27.347656 23.257812 -27.515625 22.617188 -27.453125 21.796875 L -25.828125 0.25 C -25.773438 -0.519531 -25.53125 -1.109375 -25.09375 -1.515625 C -24.664062 -1.929688 -24.066406 -2.109375 -23.296875 -2.046875 C -22.515625 -1.984375 -21.9375 -1.71875 -21.5625 -1.25 C -21.1875 -0.789062 -21.023438 -0.175781 -21.078125 0.59375 L -22.59375 20.6875 L -9.3125 21.6875 L -7.796875 1.59375 C -7.742188 0.820312 -7.5 0.234375 -7.0625 -0.171875 C -6.632812 -0.578125 -6.023438 -0.75 -5.234375 -0.6875 Z M -5.234375 -0.6875 "/></g></g></g><g fill="#000000" fill-opacity="1"><g transform="translate(164.427561, 308.799864)"><g><path d="M -4.96875 -1.765625 C -4.226562 -1.546875 -3.722656 -1.171875 -3.453125 -0.640625 C -3.179688 -0.109375 -3.15625 0.523438 -3.375 1.265625 L -9.515625 22.109375 C -9.734375 22.867188 -10.097656 23.382812 -10.609375 23.65625 C -11.128906 23.9375 -11.757812 23.96875 -12.5 23.75 L -21.140625 21.21875 C -23.910156 20.40625 -25.84375 19.082031 -26.9375 17.25 C -28.03125 15.425781 -28.210938 13.273438 -27.484375 10.796875 C -26.753906 8.304688 -25.429688 6.582031 -23.515625 5.625 C -21.609375 4.675781 -19.269531 4.609375 -16.5 5.421875 L -10.125 7.296875 L -7.953125 -0.078125 C -7.734375 -0.816406 -7.367188 -1.335938 -6.859375 -1.640625 C -6.359375 -1.953125 -5.726562 -1.992188 -4.96875 -1.765625 Z M -11.1875 10.921875 L -16.84375 9.25 C -18.46875 8.769531 -19.800781 8.769531 -20.84375 9.25 C -21.894531 9.738281 -22.628906 10.6875 -23.046875 12.09375 C -23.460938 13.5 -23.359375 14.679688 -22.734375 15.640625 C -22.109375 16.597656 -20.984375 17.316406 -19.359375 17.796875 L -13.703125 19.46875 Z M -11.1875 10.921875 "/></g></g></g><g fill="#000000" fill-opacity="1"><g transform="translate(141.359244, 302.340563)"><g><path d="M -12.6875 -7.359375 C -10.457031 -6.140625 -8.78125 -4.582031 -7.65625 -2.6875 C -6.53125 -0.789062 -5.992188 1.296875 -6.046875 3.578125 C -6.097656 5.859375 -6.773438 8.195312 -8.078125 10.59375 C -9.066406 12.40625 -10.21875 13.894531 -11.53125 15.0625 C -12.851562 16.226562 -14.28125 17.0625 -15.8125 17.5625 C -17.351562 18.070312 -18.960938 18.234375 -20.640625 18.046875 C -22.316406 17.859375 -23.992188 17.304688 -25.671875 16.390625 C -27.921875 15.160156 -29.609375 13.609375 -30.734375 11.734375 C -31.867188 9.859375 -32.410156 7.78125 -32.359375 5.5 C -32.304688 3.226562 -31.628906 0.894531 -30.328125 -1.5 C -29.328125 -3.3125 -28.164062 -4.804688 -26.84375 -5.984375 C -25.519531 -7.160156 -24.082031 -8.003906 -22.53125 -8.515625 C -20.988281 -9.035156 -19.382812 -9.203125 -17.71875 -9.015625 C -16.050781 -8.828125 -14.375 -8.273438 -12.6875 -7.359375 Z M -14.671875 -3.75 C -16.085938 -4.519531 -17.46875 -4.851562 -18.8125 -4.75 C -20.164062 -4.644531 -21.453125 -4.113281 -22.671875 -3.15625 C -23.890625 -2.195312 -24.96875 -0.859375 -25.90625 0.859375 C -27.34375 3.484375 -27.867188 5.832031 -27.484375 7.90625 C -27.097656 9.988281 -25.835938 11.613281 -23.703125 12.78125 C -22.304688 13.539062 -20.925781 13.875 -19.5625 13.78125 C -18.207031 13.6875 -16.925781 13.164062 -15.71875 12.21875 C -14.507812 11.28125 -13.425781 9.941406 -12.46875 8.203125 C -11.050781 5.609375 -10.53125 3.253906 -10.90625 1.140625 C -11.289062 -0.960938 -12.546875 -2.59375 -14.671875 -3.75 Z M -14.671875 -3.75 "/></g></g></g><g fill="#000000" fill-opacity="1"><g transform="translate(116.173625, 288.399415)"><g><path d="M -11.140625 -10.234375 C -9.078125 -8.429688 -7.675781 -6.46875 -6.9375 -4.34375 C -6.195312 -2.226562 -6.097656 -0.0664062 -6.640625 2.140625 C -7.179688 4.359375 -8.359375 6.507812 -10.171875 8.59375 C -11.535156 10.15625 -12.988281 11.363281 -14.53125 12.21875 C -16.070312 13.070312 -17.648438 13.570312 -19.265625 13.71875 C -20.890625 13.875 -22.523438 13.65625 -24.171875 13.0625 C -25.816406 12.46875 -27.40625 11.5 -28.9375 10.15625 C -29.96875 9.257812 -30.863281 8.242188 -31.625 7.109375 C -32.394531 5.984375 -32.941406 4.851562 -33.265625 3.71875 C -33.453125 3.125 -33.457031 2.597656 -33.28125 2.140625 C -33.101562 1.679688 -32.832031 1.320312 -32.46875 1.0625 C -32.113281 0.800781 -31.722656 0.660156 -31.296875 0.640625 C -30.867188 0.617188 -30.46875 0.742188 -30.09375 1.015625 C -29.726562 1.285156 -29.445312 1.726562 -29.25 2.34375 C -29.007812 3.226562 -28.617188 4.050781 -28.078125 4.8125 C -27.546875 5.582031 -26.9375 6.269531 -26.25 6.875 C -24.914062 8.03125 -23.550781 8.734375 -22.15625 8.984375 C -20.769531 9.242188 -19.390625 9.0625 -18.015625 8.4375 C -16.648438 7.8125 -15.3125 6.75 -14 5.25 C -12.71875 3.769531 -11.847656 2.300781 -11.390625 0.84375 C -10.941406 -0.601562 -10.9375 -2 -11.375 -3.34375 C -11.820312 -4.695312 -12.710938 -5.953125 -14.046875 -7.109375 C -14.765625 -7.734375 -15.546875 -8.257812 -16.390625 -8.6875 C -17.242188 -9.125 -18.144531 -9.421875 -19.09375 -9.578125 C -19.71875 -9.691406 -20.179688 -9.90625 -20.484375 -10.21875 C -20.796875 -10.53125 -20.972656 -10.890625 -21.015625 -11.296875 C -21.054688 -11.703125 -20.976562 -12.09375 -20.78125 -12.46875 C -20.582031 -12.84375 -20.28125 -13.140625 -19.875 -13.359375 C -19.476562 -13.585938 -19.003906 -13.679688 -18.453125 -13.640625 C -17.234375 -13.523438 -15.976562 -13.160156 -14.6875 -12.546875 C -13.394531 -11.929688 -12.210938 -11.160156 -11.140625 -10.234375 Z M -11.140625 -10.234375 "/></g></g></g><g fill="#000000" fill-opacity="1"><g transform="translate(97.272551, 271.805622)"><g><path d="M -6.875 -9.375 C -6.394531 -8.757812 -6.203125 -8.15625 -6.296875 -7.5625 C -6.390625 -6.96875 -6.742188 -6.4375 -7.359375 -5.96875 L -23.296875 6.359375 L -18.84375 12.125 C -18.445312 12.632812 -18.28125 13.140625 -18.34375 13.640625 C -18.414062 14.148438 -18.695312 14.597656 -19.1875 14.984375 C -19.695312 15.378906 -20.191406 15.535156 -20.671875 15.453125 C -21.160156 15.367188 -21.601562 15.070312 -22 14.5625 L -33.828125 -0.734375 C -34.222656 -1.242188 -34.394531 -1.742188 -34.34375 -2.234375 C -34.300781 -2.722656 -34.023438 -3.164062 -33.515625 -3.5625 C -33.023438 -3.945312 -32.523438 -4.101562 -32.015625 -4.03125 C -31.515625 -3.96875 -31.066406 -3.679688 -30.671875 -3.171875 L -26.21875 2.578125 L -10.28125 -9.75 C -9.664062 -10.21875 -9.0625 -10.425781 -8.46875 -10.375 C -7.882812 -10.332031 -7.351562 -10 -6.875 -9.375 Z M -6.875 -9.375 "/></g></g></g><g fill="#000000" fill-opacity="1"><g transform="translate(83.028183, 253.973021)"><g><path d="M -6.015625 -13.375 C -4.921875 -11.082031 -4.460938 -8.835938 -4.640625 -6.640625 C -4.828125 -4.441406 -5.609375 -2.429688 -6.984375 -0.609375 C -8.359375 1.210938 -10.28125 2.71875 -12.75 3.90625 C -14.613281 4.800781 -16.414062 5.335938 -18.15625 5.515625 C -19.90625 5.691406 -21.550781 5.535156 -23.09375 5.046875 C -24.644531 4.566406 -26.046875 3.765625 -27.296875 2.640625 C -28.546875 1.515625 -29.582031 0.0859375 -30.40625 -1.640625 C -31.519531 -3.953125 -31.988281 -6.195312 -31.8125 -8.375 C -31.644531 -10.5625 -30.875 -12.5625 -29.5 -14.375 C -28.132812 -16.195312 -26.222656 -17.703125 -23.765625 -18.890625 C -21.898438 -19.785156 -20.085938 -20.320312 -18.328125 -20.5 C -16.566406 -20.6875 -14.90625 -20.535156 -13.34375 -20.046875 C -11.789062 -19.566406 -10.390625 -18.765625 -9.140625 -17.640625 C -7.890625 -16.523438 -6.847656 -15.101562 -6.015625 -13.375 Z M -9.71875 -11.59375 C -10.425781 -13.050781 -11.359375 -14.128906 -12.515625 -14.828125 C -13.679688 -15.523438 -15.035156 -15.835938 -16.578125 -15.765625 C -18.128906 -15.703125 -19.789062 -15.242188 -21.5625 -14.390625 C -24.25 -13.097656 -26.039062 -11.492188 -26.9375 -9.578125 C -27.84375 -7.671875 -27.765625 -5.617188 -26.703125 -3.421875 C -26.015625 -1.984375 -25.09375 -0.90625 -23.9375 -0.1875 C -22.78125 0.519531 -21.4375 0.84375 -19.90625 0.78125 C -18.375 0.71875 -16.710938 0.253906 -14.921875 -0.609375 C -12.253906 -1.890625 -10.457031 -3.492188 -9.53125 -5.421875 C -8.613281 -7.359375 -8.675781 -9.414062 -9.71875 -11.59375 Z M -9.71875 -11.59375 "/></g></g></g><g fill="#000000" fill-opacity="1"><g transform="translate(71.009279, 227.212397)"><g/></g></g><g fill="#000000" fill-opacity="1"><g transform="translate(67.925382, 216.670136)"><g/></g></g><g fill="#000000" fill-opacity="1"><g transform="translate(65.590724, 206.264483)"><g><path d="M -8.640625 -0.515625 C -8.609375 -0.0976562 -8.71875 0.257812 -8.96875 0.5625 C -9.226562 0.875 -9.554688 1.046875 -9.953125 1.078125 C -10.347656 1.097656 -10.6875 0.972656 -10.96875 0.703125 C -11.257812 0.441406 -11.421875 0.101562 -11.453125 -0.3125 L -12.71875 -16.578125 C -12.75 -17.003906 -12.640625 -17.363281 -12.390625 -17.65625 C -12.148438 -17.945312 -11.832031 -18.101562 -11.4375 -18.125 C -11.039062 -18.15625 -10.691406 -18.046875 -10.390625 -17.796875 C -10.097656 -17.546875 -9.9375 -17.207031 -9.90625 -16.78125 Z M -8.640625 -0.515625 "/></g></g></g><g fill="#000000" fill-opacity="1"><g transform="translate(64.401463, 187.139001)"><g/></g></g><g fill="#000000" fill-opacity="1"><g transform="translate(64.918099, 176.167082)"><g/></g></g><g fill="#000000" fill-opacity="1"><g transform="translate(65.779788, 165.770816)"><g><path d="M 1.484375 -5.203125 C 1.265625 -4.421875 0.882812 -3.878906 0.34375 -3.578125 C -0.195312 -3.273438 -0.859375 -3.234375 -1.640625 -3.453125 L -22.0625 -9.296875 C -22.851562 -9.523438 -23.394531 -9.90625 -23.6875 -10.4375 C -23.988281 -10.976562 -24.03125 -11.640625 -23.8125 -12.421875 L -19.9375 -25.984375 C -19.769531 -26.585938 -19.484375 -27.003906 -19.078125 -27.234375 C -18.679688 -27.472656 -18.195312 -27.515625 -17.625 -27.359375 C -17.019531 -27.179688 -16.601562 -26.882812 -16.375 -26.46875 C -16.15625 -26.0625 -16.128906 -25.554688 -16.296875 -24.953125 L -19.609375 -13.375 L -12.703125 -11.40625 L -10.6875 -18.4375 C -9.914062 -21.132812 -8.691406 -23.0625 -7.015625 -24.21875 C -5.335938 -25.382812 -3.289062 -25.625 -0.875 -24.9375 C 1.519531 -24.25 3.132812 -22.960938 3.96875 -21.078125 C 4.800781 -19.203125 4.832031 -16.914062 4.0625 -14.21875 Z M -1.625 -8.234375 L 0.21875 -14.6875 C 0.6875 -16.3125 0.722656 -17.59375 0.328125 -18.53125 C -0.0546875 -19.476562 -0.878906 -20.128906 -2.140625 -20.484375 C -3.410156 -20.847656 -4.453125 -20.734375 -5.265625 -20.140625 C -6.085938 -19.546875 -6.734375 -18.4375 -7.203125 -16.8125 L -9.046875 -10.359375 Z M -1.625 -8.234375 "/></g></g></g><g fill="#000000" fill-opacity="1"><g transform="translate(71.976071, 141.984007)"><g><path d="M 2.640625 -4.71875 C 2.242188 -4.007812 1.75 -3.566406 1.15625 -3.390625 C 0.5625 -3.222656 -0.0859375 -3.335938 -0.796875 -3.734375 L -19.65625 -14.3125 C -20.351562 -14.695312 -20.78125 -15.171875 -20.9375 -15.734375 C -21.101562 -16.304688 -21 -16.929688 -20.625 -17.609375 C -20.25 -18.273438 -19.773438 -18.679688 -19.203125 -18.828125 C -18.640625 -18.984375 -18.007812 -18.867188 -17.3125 -18.484375 L -9.640625 -14.171875 L -6.71875 -19.40625 C -5.789062 -21.039062 -4.742188 -22.300781 -3.578125 -23.1875 C -2.410156 -24.082031 -1.160156 -24.5625 0.171875 -24.625 C 1.503906 -24.6875 2.898438 -24.3125 4.359375 -23.5 C 6.523438 -22.28125 7.796875 -20.65625 8.171875 -18.625 C 8.554688 -16.601562 8.054688 -14.363281 6.671875 -11.90625 Z M 0.421875 -8.53125 L 3.0625 -13.25 C 3.894531 -14.726562 4.226562 -15.972656 4.0625 -16.984375 C 3.894531 -17.992188 3.238281 -18.820312 2.09375 -19.46875 C 0.9375 -20.113281 -0.101562 -20.238281 -1.03125 -19.84375 C -1.957031 -19.445312 -2.835938 -18.507812 -3.671875 -17.03125 L -6.3125 -12.3125 Z M 14.140625 -24.609375 C 13.765625 -23.929688 13.28125 -23.519531 12.6875 -23.375 C 12.101562 -23.238281 11.476562 -23.359375 10.8125 -23.734375 L -8.359375 -34.484375 C -9.054688 -34.867188 -9.484375 -35.34375 -9.640625 -35.90625 C -9.804688 -36.46875 -9.703125 -37.085938 -9.328125 -37.765625 C -8.953125 -38.441406 -8.476562 -38.851562 -7.90625 -39 C -7.34375 -39.144531 -6.710938 -39.023438 -6.015625 -38.640625 L 13.15625 -27.890625 C 13.820312 -27.515625 14.25 -27.046875 14.4375 -26.484375 C 14.625 -25.921875 14.523438 -25.296875 14.140625 -24.609375 Z M 14.140625 -24.609375 "/></g></g></g><g fill="#000000" fill-opacity="1"><g transform="translate(88.448619, 113.447242)"><g><path d="M 10.53125 -10.875 C 8.675781 -8.851562 6.675781 -7.5 4.53125 -6.8125 C 2.394531 -6.132812 0.226562 -6.097656 -1.96875 -6.703125 C -4.175781 -7.304688 -6.296875 -8.539062 -8.328125 -10.40625 C -9.847656 -11.8125 -11.007812 -13.289062 -11.8125 -14.84375 C -12.625 -16.40625 -13.082031 -18 -13.1875 -19.625 C -13.300781 -21.25 -13.039062 -22.878906 -12.40625 -24.515625 C -11.769531 -26.148438 -10.757812 -27.71875 -9.375 -29.21875 C -8.445312 -30.21875 -7.40625 -31.082031 -6.25 -31.8125 C -5.09375 -32.539062 -3.941406 -33.050781 -2.796875 -33.34375 C -2.210938 -33.507812 -1.691406 -33.5 -1.234375 -33.3125 C -0.773438 -33.132812 -0.421875 -32.863281 -0.171875 -32.5 C 0.078125 -32.132812 0.207031 -31.734375 0.21875 -31.296875 C 0.226562 -30.867188 0.09375 -30.472656 -0.1875 -30.109375 C -0.476562 -29.742188 -0.9375 -29.484375 -1.5625 -29.328125 C -2.445312 -29.085938 -3.273438 -28.710938 -4.046875 -28.203125 C -4.828125 -27.691406 -5.53125 -27.097656 -6.15625 -26.421875 C -7.351562 -25.117188 -8.097656 -23.773438 -8.390625 -22.390625 C -8.679688 -21.003906 -8.53125 -19.617188 -7.9375 -18.234375 C -7.351562 -16.859375 -6.332031 -15.492188 -4.875 -14.140625 C -3.4375 -12.816406 -1.992188 -11.90625 -0.546875 -11.40625 C 0.898438 -10.914062 2.300781 -10.875 3.65625 -11.28125 C 5.019531 -11.6875 6.300781 -12.539062 7.5 -13.84375 C 8.144531 -14.539062 8.691406 -15.304688 9.140625 -16.140625 C 9.585938 -16.984375 9.910156 -17.878906 10.109375 -18.828125 C 10.234375 -19.453125 10.457031 -19.910156 10.78125 -20.203125 C 11.101562 -20.492188 11.460938 -20.65625 11.859375 -20.6875 C 12.265625 -20.71875 12.648438 -20.628906 13.015625 -20.421875 C 13.390625 -20.222656 13.6875 -19.921875 13.90625 -19.515625 C 14.125 -19.109375 14.203125 -18.628906 14.140625 -18.078125 C 13.992188 -16.859375 13.59375 -15.613281 12.9375 -14.34375 C 12.289062 -13.070312 11.488281 -11.914062 10.53125 -10.875 Z M 10.53125 -10.875 "/></g></g></g><g fill="#000000" fill-opacity="1"><g transform="translate(105.536785, 95.020596)"><g><path d="M 9.546875 -6.609375 C 8.921875 -6.160156 8.3125 -5.988281 7.71875 -6.09375 C 7.132812 -6.195312 6.613281 -6.5625 6.15625 -7.1875 L -5.734375 -23.46875 L -11.609375 -19.171875 C -12.128906 -18.796875 -12.640625 -18.644531 -13.140625 -18.71875 C -13.648438 -18.800781 -14.085938 -19.09375 -14.453125 -19.59375 C -14.835938 -20.113281 -14.976562 -20.613281 -14.875 -21.09375 C -14.78125 -21.582031 -14.472656 -22.015625 -13.953125 -22.390625 L 1.671875 -33.8125 C 2.191406 -34.1875 2.691406 -34.34375 3.171875 -34.28125 C 3.648438 -34.226562 4.082031 -33.941406 4.46875 -33.421875 C 4.832031 -32.921875 4.976562 -32.414062 4.90625 -31.90625 C 4.832031 -31.40625 4.535156 -30.96875 4.015625 -30.59375 L -1.875 -26.296875 L 10.015625 -10.015625 C 10.472656 -9.390625 10.664062 -8.78125 10.59375 -8.1875 C 10.53125 -7.601562 10.179688 -7.078125 9.546875 -6.609375 Z M 9.546875 -6.609375 "/></g></g></g><g fill="#000000" fill-opacity="1"><g transform="translate(124.046895, 81.40868)"><g><path d="M 4.890625 -1.984375 C 4.191406 -1.648438 3.5625 -1.59375 3 -1.8125 C 2.4375 -2.03125 1.992188 -2.488281 1.671875 -3.1875 L -7.578125 -22.828125 C -7.921875 -23.546875 -7.984375 -24.179688 -7.765625 -24.734375 C -7.554688 -25.296875 -7.101562 -25.738281 -6.40625 -26.0625 L 1.734375 -29.90625 C 4.335938 -31.132812 6.65625 -31.425781 8.6875 -30.78125 C 10.726562 -30.144531 12.296875 -28.660156 13.390625 -26.328125 C 14.492188 -23.972656 14.644531 -21.804688 13.84375 -19.828125 C 13.039062 -17.847656 11.335938 -16.242188 8.734375 -15.015625 L 2.71875 -12.1875 L 6 -5.234375 C 6.320312 -4.535156 6.394531 -3.898438 6.21875 -3.328125 C 6.050781 -2.765625 5.609375 -2.316406 4.890625 -1.984375 Z M 1.125 -15.59375 L 6.453125 -18.09375 C 7.992188 -18.820312 8.992188 -19.710938 9.453125 -20.765625 C 9.910156 -21.828125 9.828125 -23.023438 9.203125 -24.359375 C 8.578125 -25.679688 7.710938 -26.492188 6.609375 -26.796875 C 5.503906 -27.109375 4.179688 -26.898438 2.640625 -26.171875 L -2.6875 -23.671875 Z M 1.125 -15.59375 "/></g></g></g><g fill="#000000" fill-opacity="1"><g transform="translate(145.568048, 70.928469)"><g><path d="M 14.375 -2.9375 C 11.894531 -2.363281 9.601562 -2.40625 7.5 -3.0625 C 5.40625 -3.726562 3.617188 -4.929688 2.140625 -6.671875 C 0.671875 -8.421875 -0.367188 -10.628906 -0.984375 -13.296875 C -1.453125 -15.304688 -1.578125 -17.179688 -1.359375 -18.921875 C -1.148438 -20.671875 -0.644531 -22.242188 0.15625 -23.640625 C 0.96875 -25.046875 2.0625 -26.226562 3.4375 -27.1875 C 4.820312 -28.15625 6.445312 -28.859375 8.3125 -29.296875 C 10.8125 -29.867188 13.109375 -29.828125 15.203125 -29.171875 C 17.296875 -28.523438 19.078125 -27.332031 20.546875 -25.59375 C 22.015625 -23.863281 23.050781 -21.664062 23.65625 -19 C 24.125 -16.988281 24.253906 -15.101562 24.046875 -13.34375 C 23.835938 -11.582031 23.328125 -10 22.515625 -8.59375 C 21.703125 -7.1875 20.609375 -6 19.234375 -5.03125 C 17.859375 -4.0625 16.238281 -3.363281 14.375 -2.9375 Z M 13.453125 -6.9375 C 15.023438 -7.289062 16.28125 -7.957031 17.21875 -8.9375 C 18.164062 -9.914062 18.773438 -11.164062 19.046875 -12.6875 C 19.328125 -14.207031 19.25 -15.925781 18.8125 -17.84375 C 18.144531 -20.75 16.972656 -22.851562 15.296875 -24.15625 C 13.628906 -25.457031 11.609375 -25.835938 9.234375 -25.296875 C 7.679688 -24.929688 6.429688 -24.265625 5.484375 -23.296875 C 4.535156 -22.328125 3.921875 -21.085938 3.640625 -19.578125 C 3.359375 -18.078125 3.441406 -16.359375 3.890625 -14.421875 C 4.554688 -11.535156 5.726562 -9.429688 7.40625 -8.109375 C 9.082031 -6.785156 11.097656 -6.394531 13.453125 -6.9375 Z M 13.453125 -6.9375 "/></g></g></g><g fill="#000000" fill-opacity="1"><g transform="translate(174.333486, 65.104291)"><g/></g></g><g fill="#000000" fill-opacity="1"><g transform="translate(185.296453, 64.423754)"><g/></g></g><g fill="#000000" fill-opacity="1"><g transform="translate(195.951807, 64.45099)"><g><path d="M 2.40625 -8.3125 C 2 -8.375 1.671875 -8.5625 1.421875 -8.875 C 1.179688 -9.195312 1.09375 -9.550781 1.15625 -9.9375 C 1.207031 -10.332031 1.394531 -10.640625 1.71875 -10.859375 C 2.039062 -11.078125 2.40625 -11.15625 2.8125 -11.09375 L 18.953125 -8.734375 C 19.378906 -8.671875 19.707031 -8.488281 19.9375 -8.1875 C 20.175781 -7.882812 20.269531 -7.535156 20.21875 -7.140625 C 20.15625 -6.753906 19.96875 -6.441406 19.65625 -6.203125 C 19.34375 -5.972656 18.972656 -5.890625 18.546875 -5.953125 Z M 2.40625 -8.3125 "/></g></g></g><g fill="#000000" fill-opacity="1"><g transform="translate(214.87695, 67.505989)"><g/></g></g><g fill="#000000" fill-opacity="1"><g transform="translate(225.464136, 70.432014)"><g/></g></g><g fill="#000000" fill-opacity="1"><g transform="translate(235.748136, 74.290663)"><g/></g></g><g fill="#000000" fill-opacity="1"><g transform="translate(245.378967, 78.282411)"><g><path d="M 8.328125 6.03125 C 7.148438 5.238281 6.117188 4.320312 5.234375 3.28125 C 4.359375 2.238281 3.671875 1.132812 3.171875 -0.03125 C 2.960938 -0.53125 2.90625 -1.003906 3 -1.453125 C 3.101562 -1.910156 3.304688 -2.3125 3.609375 -2.65625 C 3.910156 -3 4.253906 -3.226562 4.640625 -3.34375 C 5.035156 -3.457031 5.425781 -3.421875 5.8125 -3.234375 C 6.195312 -3.054688 6.507812 -2.671875 6.75 -2.078125 C 7.195312 -1.085938 7.726562 -0.234375 8.34375 0.484375 C 8.96875 1.203125 9.703125 1.847656 10.546875 2.421875 C 11.929688 3.347656 13.304688 3.867188 14.671875 3.984375 C 16.035156 4.109375 17.363281 3.820312 18.65625 3.125 C 19.945312 2.425781 21.15625 1.304688 22.28125 -0.234375 L 22.828125 1.46875 L 13.09375 -5.046875 C 12.5625 -5.410156 12.238281 -5.820312 12.125 -6.28125 C 12.019531 -6.75 12.140625 -7.238281 12.484375 -7.75 C 12.816406 -8.25 13.222656 -8.539062 13.703125 -8.625 C 14.179688 -8.707031 14.6875 -8.566406 15.21875 -8.203125 L 24.890625 -1.71875 L 23.078125 -1.5 C 23.960938 -3.039062 24.488281 -4.503906 24.65625 -5.890625 C 24.820312 -7.273438 24.609375 -8.554688 24.015625 -9.734375 C 23.421875 -10.910156 22.445312 -11.953125 21.09375 -12.859375 C 20.257812 -13.421875 19.378906 -13.851562 18.453125 -14.15625 C 17.535156 -14.457031 16.582031 -14.644531 15.59375 -14.71875 C 14.96875 -14.738281 14.484375 -14.894531 14.140625 -15.1875 C 13.796875 -15.476562 13.578125 -15.828125 13.484375 -16.234375 C 13.390625 -16.640625 13.410156 -17.039062 13.546875 -17.4375 C 13.691406 -17.84375 13.945312 -18.175781 14.3125 -18.4375 C 14.6875 -18.695312 15.160156 -18.828125 15.734375 -18.828125 C 17.140625 -18.816406 18.523438 -18.578125 19.890625 -18.109375 C 21.265625 -17.640625 22.515625 -17.023438 23.640625 -16.265625 C 25.878906 -14.773438 27.472656 -13.035156 28.421875 -11.046875 C 29.378906 -9.054688 29.71875 -6.9375 29.4375 -4.6875 C 29.164062 -2.4375 28.269531 -0.175781 26.75 2.09375 C 25.59375 3.800781 24.300781 5.179688 22.875 6.234375 C 21.457031 7.285156 19.953125 7.988281 18.359375 8.34375 C 16.773438 8.707031 15.132812 8.695312 13.4375 8.3125 C 11.738281 7.9375 10.035156 7.175781 8.328125 6.03125 Z M 8.328125 6.03125 "/></g></g></g><g fill="#000000" fill-opacity="1"><g transform="translate(266.278958, 91.708504)"><g><path d="M 10.34375 12.953125 C 9.8125 12.390625 9.554688 11.8125 9.578125 11.21875 C 9.597656 10.625 9.90625 10.050781 10.5 9.5 L 12.03125 8.078125 L 11.90625 9.828125 L 11.25 9.109375 C 9.519531 7.253906 8.359375 5.347656 7.765625 3.390625 C 7.171875 1.429688 7.148438 -0.484375 7.703125 -2.359375 C 8.265625 -4.234375 9.421875 -5.984375 11.171875 -7.609375 C 12.503906 -8.847656 13.867188 -9.742188 15.265625 -10.296875 C 16.671875 -10.847656 18.082031 -11.0625 19.5 -10.9375 C 20.925781 -10.820312 22.335938 -10.367188 23.734375 -9.578125 C 25.140625 -8.796875 26.503906 -7.695312 27.828125 -6.28125 L 28.484375 -5.5625 L 26.75 -5.578125 L 28.140625 -6.875 C 28.722656 -7.414062 29.304688 -7.671875 29.890625 -7.640625 C 30.484375 -7.609375 31.046875 -7.3125 31.578125 -6.75 C 32.097656 -6.175781 32.347656 -5.597656 32.328125 -5.015625 C 32.304688 -4.441406 32.003906 -3.882812 31.421875 -3.34375 L 30.03125 -2.046875 L 30.140625 -3.78125 L 30.796875 -3.078125 C 32.578125 -1.160156 33.765625 0.765625 34.359375 2.703125 C 34.960938 4.648438 34.976562 6.550781 34.40625 8.40625 C 33.832031 10.257812 32.660156 12.003906 30.890625 13.640625 C 29.578125 14.859375 28.210938 15.742188 26.796875 16.296875 C 25.390625 16.847656 23.96875 17.054688 22.53125 16.921875 C 21.101562 16.785156 19.6875 16.332031 18.28125 15.5625 C 16.875 14.800781 15.519531 13.71875 14.21875 12.3125 L 13.5625 11.609375 L 15.3125 11.609375 L 13.78125 13.03125 C 13.1875 13.582031 12.597656 13.851562 12.015625 13.84375 C 11.441406 13.84375 10.882812 13.546875 10.34375 12.953125 Z M 13.203125 7.03125 L 25.640625 -4.5 L 25.71875 -3.1875 L 24.828125 -4.15625 C 24.128906 -4.894531 23.375 -5.460938 22.5625 -5.859375 C 21.75 -6.265625 20.894531 -6.476562 20 -6.5 C 19.113281 -6.53125 18.207031 -6.34375 17.28125 -5.9375 C 16.351562 -5.53125 15.425781 -4.894531 14.5 -4.03125 C 13.269531 -2.894531 12.441406 -1.722656 12.015625 -0.515625 C 11.597656 0.691406 11.535156 1.878906 11.828125 3.046875 C 12.117188 4.222656 12.710938 5.289062 13.609375 6.25 L 14.5 7.21875 Z M 16.421875 10.515625 L 16.34375 9.21875 L 17.234375 10.171875 C 17.921875 10.898438 18.671875 11.460938 19.484375 11.859375 C 20.296875 12.265625 21.148438 12.472656 22.046875 12.484375 C 22.941406 12.503906 23.851562 12.316406 24.78125 11.921875 C 25.71875 11.523438 26.644531 10.90625 27.5625 10.0625 C 28.820312 8.894531 29.664062 7.707031 30.09375 6.5 C 30.53125 5.300781 30.597656 4.128906 30.296875 2.984375 C 29.992188 1.835938 29.378906 0.765625 28.453125 -0.234375 L 27.5625 -1.1875 L 28.859375 -1.015625 Z M 16.421875 10.515625 "/></g></g></g><g fill="#000000" fill-opacity="1"><g transform="translate(288.24682, 115.213652)"><g><path d="M 6.65625 15.171875 C 6.289062 14.492188 6.195312 13.867188 6.375 13.296875 C 6.550781 12.734375 6.992188 12.265625 7.703125 11.890625 L 9.546875 10.90625 L 8.984375 12.5625 L 8.53125 11.703125 C 7.34375 9.460938 6.710938 7.316406 6.640625 5.265625 C 6.566406 3.222656 7.035156 1.367188 8.046875 -0.296875 C 9.066406 -1.960938 10.628906 -3.359375 12.734375 -4.484375 C 14.347656 -5.335938 15.90625 -5.847656 17.40625 -6.015625 C 18.90625 -6.191406 20.328125 -6.039062 21.671875 -5.5625 C 23.015625 -5.082031 24.265625 -4.28125 25.421875 -3.15625 C 26.578125 -2.03125 27.609375 -0.613281 28.515625 1.09375 L 28.96875 1.953125 L 27.28125 1.5 L 28.96875 0.609375 C 29.664062 0.234375 30.296875 0.132812 30.859375 0.3125 C 31.421875 0.488281 31.882812 0.914062 32.25 1.59375 C 32.613281 2.28125 32.707031 2.898438 32.53125 3.453125 C 32.363281 4.015625 31.929688 4.484375 31.234375 4.859375 L 29.546875 5.75 L 30.109375 4.109375 L 30.5625 4.953125 C 31.789062 7.265625 32.441406 9.429688 32.515625 11.453125 C 32.585938 13.484375 32.109375 15.316406 31.078125 16.953125 C 30.054688 18.597656 28.476562 19.988281 26.34375 21.125 C 24.757812 21.96875 23.210938 22.472656 21.703125 22.640625 C 20.203125 22.804688 18.773438 22.640625 17.421875 22.140625 C 16.078125 21.648438 14.820312 20.851562 13.65625 19.75 C 12.5 18.65625 11.472656 17.257812 10.578125 15.5625 L 10.125 14.71875 L 11.8125 15.15625 L 9.96875 16.140625 C 9.257812 16.515625 8.625 16.625 8.0625 16.46875 C 7.5 16.320312 7.03125 15.890625 6.65625 15.171875 Z M 10.9375 10.1875 L 25.921875 2.25 L 25.671875 3.53125 L 25.046875 2.375 C 24.566406 1.46875 23.984375 0.71875 23.296875 0.125 C 22.617188 -0.46875 21.851562 -0.890625 21 -1.140625 C 20.144531 -1.390625 19.21875 -1.4375 18.21875 -1.28125 C 17.21875 -1.132812 16.15625 -0.765625 15.03125 -0.171875 C 13.5625 0.609375 12.46875 1.53125 11.75 2.59375 C 11.03125 3.65625 10.660156 4.785156 10.640625 5.984375 C 10.617188 7.191406 10.914062 8.378906 11.53125 9.546875 L 12.15625 10.703125 Z M 13.171875 14.390625 L 13.421875 13.09375 L 14.046875 14.265625 C 14.515625 15.140625 15.085938 15.875 15.765625 16.46875 C 16.453125 17.070312 17.222656 17.492188 18.078125 17.734375 C 18.941406 17.984375 19.878906 18.035156 20.890625 17.890625 C 21.898438 17.753906 22.953125 17.394531 24.046875 16.8125 C 25.566406 16.007812 26.6875 15.082031 27.40625 14.03125 C 28.132812 12.988281 28.5 11.867188 28.5 10.671875 C 28.507812 9.484375 28.195312 8.289062 27.5625 7.09375 L 26.9375 5.921875 L 28.15625 6.453125 Z M 13.171875 14.390625 "/></g></g></g><g fill="#000000" fill-opacity="1"><g transform="translate(303.013658, 144.135316)"><g><path d="M 1.4375 5.21875 C 1.21875 4.425781 1.257812 3.757812 1.5625 3.21875 C 1.875 2.6875 2.421875 2.3125 3.203125 2.09375 L 23.703125 -3.53125 C 24.492188 -3.75 25.15625 -3.703125 25.6875 -3.390625 C 26.21875 -3.085938 26.59375 -2.539062 26.8125 -1.75 L 30.328125 11.09375 C 30.492188 11.695312 30.460938 12.207031 30.234375 12.625 C 30.015625 13.039062 29.617188 13.328125 29.046875 13.484375 C 28.441406 13.648438 27.9375 13.613281 27.53125 13.375 C 27.125 13.132812 26.835938 12.710938 26.671875 12.109375 L 23.703125 1.25 L 16.703125 3.15625 L 19.46875 13.234375 C 19.632812 13.859375 19.601562 14.367188 19.375 14.765625 C 19.144531 15.171875 18.726562 15.457031 18.125 15.625 C 17.539062 15.78125 17.046875 15.742188 16.640625 15.515625 C 16.242188 15.296875 15.960938 14.875 15.796875 14.25 L 13.03125 4.171875 L 5.65625 6.1875 L 8.625 17.046875 C 8.789062 17.648438 8.765625 18.160156 8.546875 18.578125 C 8.328125 18.992188 7.914062 19.285156 7.3125 19.453125 C 6.707031 19.617188 6.203125 19.578125 5.796875 19.328125 C 5.398438 19.085938 5.117188 18.664062 4.953125 18.0625 Z M 1.4375 5.21875 "/></g></g></g><g fill="#000000" fill-opacity="1"><g transform="translate(309.005805, 165.408495)"><g><path d="M 0.109375 5.265625 C 0.046875 4.492188 0.21875 3.882812 0.625 3.4375 C 1.03125 3 1.617188 2.75 2.390625 2.6875 L 24.328125 1 C 25.128906 0.9375 25.75 1.09375 26.1875 1.46875 C 26.625 1.851562 26.875 2.429688 26.9375 3.203125 C 27 3.972656 26.84375 4.578125 26.46875 5.015625 C 26.09375 5.460938 25.503906 5.71875 24.703125 5.78125 L 15.703125 6.46875 L 16.03125 10.703125 L 15.3125 9.8125 L 26.6875 15.84375 C 27.226562 16.144531 27.601562 16.519531 27.8125 16.96875 C 28.019531 17.414062 28.09375 17.863281 28.03125 18.3125 C 27.96875 18.769531 27.785156 19.171875 27.484375 19.515625 C 27.191406 19.867188 26.804688 20.082031 26.328125 20.15625 C 25.859375 20.226562 25.347656 20.113281 24.796875 19.8125 L 14.734375 14.28125 L 15.96875 12.3125 C 15.84375 13.945312 15.363281 15.359375 14.53125 16.546875 C 13.695312 17.734375 12.492188 18.789062 10.921875 19.71875 L 4.890625 23.25 C 4.304688 23.613281 3.757812 23.757812 3.25 23.6875 C 2.75 23.613281 2.335938 23.394531 2.015625 23.03125 C 1.703125 22.675781 1.5 22.257812 1.40625 21.78125 C 1.320312 21.300781 1.378906 20.816406 1.578125 20.328125 C 1.785156 19.847656 2.164062 19.453125 2.71875 19.140625 L 8.828125 15.71875 C 10.054688 15.019531 10.910156 14.234375 11.390625 13.359375 C 11.878906 12.492188 12.078125 11.441406 11.984375 10.203125 L 11.71875 6.78125 L 2.765625 7.46875 C 1.992188 7.53125 1.375 7.375 0.90625 7 C 0.4375 6.632812 0.171875 6.054688 0.109375 5.265625 Z M 0.109375 5.265625 "/></g></g></g><g fill="#000000" fill-opacity="1"><g transform="translate(310.854474, 190.285737)"><g><path d="M -1.65625 11.5 C -1.5625 10.726562 -1.269531 10.164062 -0.78125 9.8125 C -0.300781 9.457031 0.316406 9.320312 1.078125 9.40625 L 21.09375 11.765625 L 21.953125 4.53125 C 22.023438 3.894531 22.257812 3.414062 22.65625 3.09375 C 23.0625 2.78125 23.570312 2.660156 24.1875 2.734375 C 24.832031 2.804688 25.296875 3.039062 25.578125 3.4375 C 25.867188 3.84375 25.976562 4.363281 25.90625 5 L 23.640625 24.21875 C 23.566406 24.851562 23.34375 25.328125 22.96875 25.640625 C 22.601562 25.960938 22.097656 26.085938 21.453125 26.015625 C 20.835938 25.941406 20.367188 25.703125 20.046875 25.296875 C 19.734375 24.898438 19.613281 24.382812 19.6875 23.75 L 20.53125 16.515625 L 0.515625 14.15625 C -0.242188 14.070312 -0.816406 13.800781 -1.203125 13.34375 C -1.597656 12.894531 -1.75 12.28125 -1.65625 11.5 Z M -1.65625 11.5 "/></g></g></g><g fill="#000000" fill-opacity="1"><g transform="translate(308.475559, 213.013035)"><g><path d="M -1.828125 4.546875 C -1.722656 4.242188 -1.582031 3.988281 -1.40625 3.78125 C -1.238281 3.570312 -1.023438 3.421875 -0.765625 3.328125 C -0.515625 3.234375 -0.234375 3.191406 0.078125 3.203125 C 0.390625 3.210938 0.734375 3.28125 1.109375 3.40625 L 22.1875 10.421875 C 22.875 10.648438 23.34375 11.007812 23.59375 11.5 C 23.84375 11.988281 23.859375 12.570312 23.640625 13.25 C 23.410156 13.945312 23.046875 14.40625 22.546875 14.625 C 22.054688 14.851562 21.46875 14.851562 20.78125 14.625 L 4.03125 9.046875 L 4.3125 8.234375 L 17.421875 27.546875 C 17.773438 28.054688 17.992188 28.507812 18.078125 28.90625 C 18.171875 29.3125 18.128906 29.785156 17.953125 30.328125 C 17.828125 30.703125 17.632812 31 17.375 31.21875 C 17.113281 31.4375 16.796875 31.566406 16.421875 31.609375 C 16.054688 31.660156 15.660156 31.617188 15.234375 31.484375 L -6.015625 24.40625 C -6.722656 24.164062 -7.203125 23.804688 -7.453125 23.328125 C -7.710938 22.847656 -7.726562 22.265625 -7.5 21.578125 C -7.269531 20.898438 -6.90625 20.4375 -6.40625 20.1875 C -5.914062 19.945312 -5.316406 19.945312 -4.609375 20.1875 L 12.140625 25.765625 L 11.890625 26.546875 L -1.234375 7.265625 C -1.578125 6.734375 -1.804688 6.28125 -1.921875 5.90625 C -2.035156 5.539062 -2.003906 5.085938 -1.828125 4.546875 Z M -1.828125 4.546875 "/></g></g></g><g fill="#000000" fill-opacity="1"><g transform="translate(299.700941, 239.076702)"><g><path d="M -2.75 4.65625 C -2.34375 3.957031 -1.835938 3.53125 -1.234375 3.375 C -0.640625 3.21875 0.00390625 3.347656 0.703125 3.765625 L 18.984375 14.59375 C 19.691406 15.007812 20.117188 15.519531 20.265625 16.125 C 20.421875 16.726562 20.296875 17.378906 19.890625 18.078125 L 15.3125 25.78125 C 14.375 27.375 13.335938 28.582031 12.203125 29.40625 C 11.066406 30.238281 9.882812 30.6875 8.65625 30.75 C 7.4375 30.820312 6.21875 30.5 5 29.78125 C 3.625 28.96875 2.695312 27.882812 2.21875 26.53125 C 1.75 25.1875 1.757812 23.734375 2.25 22.171875 L 2.734375 22.46875 C 1.566406 23.914062 0.242188 24.789062 -1.234375 25.09375 C -2.722656 25.394531 -4.238281 25.085938 -5.78125 24.171875 C -7.789062 22.972656 -8.941406 21.367188 -9.234375 19.359375 C -9.535156 17.347656 -8.96875 15.132812 -7.53125 12.71875 Z M -0.6875 8.265625 L -4.109375 14.046875 C -4.972656 15.492188 -5.328125 16.726562 -5.171875 17.75 C -5.015625 18.78125 -4.367188 19.628906 -3.234375 20.296875 C -2.078125 20.984375 -1.015625 21.144531 -0.046875 20.78125 C 0.910156 20.425781 1.820312 19.523438 2.6875 18.078125 L 6.109375 12.296875 Z M 9.21875 14.15625 L 6.125 19.390625 C 5.28125 20.804688 4.925781 22.019531 5.0625 23.03125 C 5.195312 24.050781 5.800781 24.878906 6.875 25.515625 C 7.945312 26.148438 8.960938 26.28125 9.921875 25.90625 C 10.878906 25.539062 11.78125 24.648438 12.625 23.234375 L 15.71875 18 Z M 9.21875 14.15625 "/></g></g></g><g fill="#000000" fill-opacity="1"><g transform="translate(287.040007, 260.889446)"><g><path d="M -3.8125 3.640625 C -3.289062 3.078125 -2.726562 2.789062 -2.125 2.78125 C -1.53125 2.78125 -0.953125 3.046875 -0.390625 3.578125 L 15.671875 18.59375 C 16.242188 19.132812 16.539062 19.703125 16.5625 20.296875 C 16.59375 20.890625 16.347656 21.46875 15.828125 22.03125 C 15.296875 22.59375 14.734375 22.878906 14.140625 22.890625 C 13.554688 22.898438 12.976562 22.632812 12.40625 22.09375 L 5.96875 16.078125 L -3.28125 25.96875 L 3.15625 31.984375 C 3.726562 32.523438 4.023438 33.085938 4.046875 33.671875 C 4.078125 34.265625 3.828125 34.84375 3.296875 35.40625 C 2.773438 35.96875 2.21875 36.253906 1.625 36.265625 C 1.039062 36.273438 0.460938 36.007812 -0.109375 35.46875 L -16.171875 20.453125 C -16.734375 19.921875 -17.03125 19.351562 -17.0625 18.75 C -17.101562 18.15625 -16.863281 17.578125 -16.34375 17.015625 C -15.8125 16.453125 -15.242188 16.171875 -14.640625 16.171875 C -14.046875 16.171875 -13.46875 16.4375 -12.90625 16.96875 L -6.203125 23.234375 L 3.046875 13.34375 L -3.65625 7.078125 C -4.21875 6.546875 -4.519531 5.984375 -4.5625 5.390625 C -4.601562 4.804688 -4.351562 4.222656 -3.8125 3.640625 Z M -3.8125 3.640625 "/></g></g></g><g fill="#000000" fill-opacity="1"><g transform="translate(267.787165, 281.594973)"><g><path d="M -12.40625 7.828125 C -10.289062 6.410156 -8.132812 5.640625 -5.9375 5.515625 C -3.738281 5.398438 -1.640625 5.894531 0.359375 7 C 2.359375 8.113281 4.113281 9.804688 5.625 12.078125 C 6.78125 13.804688 7.566406 15.519531 7.984375 17.21875 C 8.398438 18.925781 8.476562 20.578125 8.21875 22.171875 C 7.957031 23.773438 7.351562 25.269531 6.40625 26.65625 C 5.457031 28.050781 4.1875 29.28125 2.59375 30.34375 C 0.457031 31.757812 -1.695312 32.53125 -3.875 32.65625 C -6.0625 32.789062 -8.148438 32.304688 -10.140625 31.203125 C -12.140625 30.109375 -13.894531 28.425781 -15.40625 26.15625 C -16.550781 24.425781 -17.335938 22.703125 -17.765625 20.984375 C -18.203125 19.265625 -18.285156 17.601562 -18.015625 16 C -17.753906 14.394531 -17.148438 12.894531 -16.203125 11.5 C -15.265625 10.113281 -14 8.890625 -12.40625 7.828125 Z M -10.125 11.25 C -11.46875 12.144531 -12.40625 13.21875 -12.9375 14.46875 C -13.476562 15.71875 -13.609375 17.097656 -13.328125 18.609375 C -13.046875 20.128906 -12.363281 21.703125 -11.28125 23.328125 C -9.613281 25.816406 -7.769531 27.375 -5.75 28 C -3.738281 28.632812 -1.71875 28.273438 0.3125 26.921875 C 1.632812 26.035156 2.566406 24.96875 3.109375 23.71875 C 3.660156 22.476562 3.796875 21.101562 3.515625 19.59375 C 3.242188 18.082031 2.554688 16.5 1.453125 14.84375 C -0.179688 12.382812 -2.015625 10.832031 -4.046875 10.1875 C -6.085938 9.550781 -8.113281 9.90625 -10.125 11.25 Z M -10.125 11.25 "/></g></g></g><g fill="#000000" fill-opacity="1"><g transform="translate(242.961868, 297.216804)"><g/></g></g><g fill="#000000" fill-opacity="1"><g transform="translate(232.948823, 301.732223)"><g/></g></g><g fill="#000000" fill-opacity="1"><g transform="translate(222.958881, 305.479426)"><g><path d="M 0.6875 8.625 C 1.09375 8.539062 1.460938 8.601562 1.796875 8.8125 C 2.140625 9.019531 2.359375 9.316406 2.453125 9.703125 C 2.535156 10.085938 2.460938 10.441406 2.234375 10.765625 C 2.015625 11.085938 1.703125 11.289062 1.296875 11.375 L -14.640625 14.890625 C -15.054688 14.972656 -15.425781 14.914062 -15.75 14.71875 C -16.082031 14.519531 -16.289062 14.226562 -16.375 13.84375 C -16.46875 13.457031 -16.40625 13.097656 -16.1875 12.765625 C -15.976562 12.429688 -15.664062 12.222656 -15.25 12.140625 Z M 0.6875 8.625 "/></g></g></g><g fill="#000000" fill-opacity="1"><g transform="translate(204.191237, 309.315593)"><g/></g></g><g fill="#000000" fill-opacity="1"><g transform="translate(193.253632, 310.324808)"><g/></g></g><g clip-path="url(#4e68ed348b)"><g clip-path="url(#f980dcc031)"><path fill="#000000" d="M 97.914062 97.914062 L 277.085938 97.914062 L 277.085938 277.085938 L 97.914062 277.085938 Z M 97.914062 97.914062 " fill-opacity="1" fill-rule="nonzero"/></g></g><g clip-path="url(#72a3821923)"><path fill="#6fff31" d="M 187.488281 133.398438 C 182.214844 177.941406 177.941406 182.214844 133.398438 187.488281 C 133.488281 187.496094 133.582031 187.507812 133.671875 187.519531 L 133.675781 187.519531 C 177.957031 192.777344 182.226562 197.125 187.488281 241.578125 C 192.757812 197.03125 197.03125 192.757812 241.578125 187.488281 C 197.03125 182.214844 192.757812 177.941406 187.488281 133.398438 Z M 187.488281 133.398438 " fill-opacity="1" fill-rule="nonzero"/></g></svg>